<mxfile host="app.diagrams.net" agent="Mozilla/5.0 (Windows NT 10.0; Win64; x64) AppleWebKit/537.36 (KHTML, like Gecko) Chrome/132.0.0.0 Safari/537.36" version="26.0.5">
  <diagram name="Page-1" id="eWceWiFo3uiuACEVMpWz">
    <mxGraphModel dx="1505" dy="1342" grid="0" gridSize="10" guides="1" tooltips="1" connect="1" arrows="1" fold="1" page="0" pageScale="1" pageWidth="827" pageHeight="1169" math="0" shadow="0">
      <root>
        <mxCell id="0" />
        <mxCell id="1" parent="0" />
        <mxCell id="SlBY4rNjQKFtLtAtpvnM-25" value="Jenkins" style="rounded=0;whiteSpace=wrap;html=1;labelPosition=center;verticalLabelPosition=bottom;align=center;verticalAlign=top;" vertex="1" parent="1">
          <mxGeometry x="-228" y="-512" width="217" height="150" as="geometry" />
        </mxCell>
        <mxCell id="SlBY4rNjQKFtLtAtpvnM-36" style="edgeStyle=orthogonalEdgeStyle;rounded=0;orthogonalLoop=1;jettySize=auto;html=1;entryX=0;entryY=0.5;entryDx=0;entryDy=0;" edge="1" parent="1" source="SlBY4rNjQKFtLtAtpvnM-3" target="SlBY4rNjQKFtLtAtpvnM-28">
          <mxGeometry relative="1" as="geometry" />
        </mxCell>
        <mxCell id="SlBY4rNjQKFtLtAtpvnM-37" value="Deploy" style="edgeLabel;html=1;align=center;verticalAlign=middle;resizable=0;points=[];" vertex="1" connectable="0" parent="SlBY4rNjQKFtLtAtpvnM-36">
          <mxGeometry x="0.1946" y="4" relative="1" as="geometry">
            <mxPoint x="-1" y="-22" as="offset" />
          </mxGeometry>
        </mxCell>
        <mxCell id="SlBY4rNjQKFtLtAtpvnM-3" value="" style="shape=image;verticalLabelPosition=bottom;labelBackgroundColor=default;verticalAlign=top;aspect=fixed;imageAspect=0;image=https://static-00.iconduck.com/assets.00/file-type-terraform-icon-1821x2048-mbxeegff.png;" vertex="1" parent="1">
          <mxGeometry x="-68.00000000000006" y="-454" width="47.64" height="53.58" as="geometry" />
        </mxCell>
        <mxCell id="SlBY4rNjQKFtLtAtpvnM-4" value="" style="shape=image;verticalLabelPosition=bottom;labelBackgroundColor=default;verticalAlign=top;aspect=fixed;imageAspect=0;image=https://logolook.net/wp-content/uploads/2022/12/GitHub-Logo.png;" vertex="1" parent="1">
          <mxGeometry x="-255.16" y="-702" width="132.33" height="74.44" as="geometry" />
        </mxCell>
        <mxCell id="SlBY4rNjQKFtLtAtpvnM-5" value="AWS Cloud" style="points=[[0,0],[0.25,0],[0.5,0],[0.75,0],[1,0],[1,0.25],[1,0.5],[1,0.75],[1,1],[0.75,1],[0.5,1],[0.25,1],[0,1],[0,0.75],[0,0.5],[0,0.25]];outlineConnect=0;gradientColor=none;html=1;whiteSpace=wrap;fontSize=12;fontStyle=0;container=0;pointerEvents=0;collapsible=0;recursiveResize=0;shape=mxgraph.aws4.group;grIcon=mxgraph.aws4.group_aws_cloud_alt;strokeColor=#232F3E;fillColor=none;verticalAlign=top;align=left;spacingLeft=30;fontColor=#232F3E;dashed=0;" vertex="1" parent="1">
          <mxGeometry x="-390" y="-578" width="923" height="394" as="geometry" />
        </mxCell>
        <mxCell id="SlBY4rNjQKFtLtAtpvnM-17" style="edgeStyle=orthogonalEdgeStyle;rounded=0;orthogonalLoop=1;jettySize=auto;html=1;" edge="1" parent="1" source="SlBY4rNjQKFtLtAtpvnM-7" target="SlBY4rNjQKFtLtAtpvnM-4">
          <mxGeometry relative="1" as="geometry" />
        </mxCell>
        <mxCell id="SlBY4rNjQKFtLtAtpvnM-18" value="Git token" style="edgeLabel;html=1;align=center;verticalAlign=middle;resizable=0;points=[];" vertex="1" connectable="0" parent="SlBY4rNjQKFtLtAtpvnM-17">
          <mxGeometry x="0.0863" relative="1" as="geometry">
            <mxPoint x="1" as="offset" />
          </mxGeometry>
        </mxCell>
        <mxCell id="SlBY4rNjQKFtLtAtpvnM-7" value="" style="image;html=1;image=img/lib/clip_art/computers/Laptop_128x128.png" vertex="1" parent="1">
          <mxGeometry x="-32" y="-704.78" width="80" height="80" as="geometry" />
        </mxCell>
        <mxCell id="SlBY4rNjQKFtLtAtpvnM-6" value="" style="sketch=0;points=[[0,0,0],[0.25,0,0],[0.5,0,0],[0.75,0,0],[1,0,0],[0,1,0],[0.25,1,0],[0.5,1,0],[0.75,1,0],[1,1,0],[0,0.25,0],[0,0.5,0],[0,0.75,0],[1,0.25,0],[1,0.5,0],[1,0.75,0]];outlineConnect=0;fontColor=#232F3E;fillColor=#ED7100;strokeColor=#ffffff;dashed=0;verticalLabelPosition=bottom;verticalAlign=top;align=center;html=1;fontSize=12;fontStyle=0;aspect=fixed;shape=mxgraph.aws4.resourceIcon;resIcon=mxgraph.aws4.ec2;" vertex="1" parent="1">
          <mxGeometry x="-228" y="-512" width="78" height="78" as="geometry" />
        </mxCell>
        <mxCell id="SlBY4rNjQKFtLtAtpvnM-1" value="" style="shape=image;verticalLabelPosition=bottom;labelBackgroundColor=default;verticalAlign=top;aspect=fixed;imageAspect=0;image=https://logos-world.net/wp-content/uploads/2023/12/Jenkins-Emblem.png;" vertex="1" parent="1">
          <mxGeometry x="-183" y="-454" width="120" height="67.5" as="geometry" />
        </mxCell>
        <mxCell id="SlBY4rNjQKFtLtAtpvnM-13" style="edgeStyle=orthogonalEdgeStyle;rounded=0;orthogonalLoop=1;jettySize=auto;html=1;" edge="1" parent="1" source="SlBY4rNjQKFtLtAtpvnM-10" target="SlBY4rNjQKFtLtAtpvnM-6">
          <mxGeometry relative="1" as="geometry" />
        </mxCell>
        <mxCell id="SlBY4rNjQKFtLtAtpvnM-10" value="LabInstanceProfile" style="shape=image;verticalLabelPosition=bottom;labelBackgroundColor=default;verticalAlign=top;aspect=fixed;imageAspect=0;image=https://svgmix.com/uploads/4b20ce-aws-iam.svg;" vertex="1" parent="1">
          <mxGeometry x="-352" y="-512" width="78" height="78" as="geometry" />
        </mxCell>
        <mxCell id="SlBY4rNjQKFtLtAtpvnM-15" style="edgeStyle=orthogonalEdgeStyle;rounded=0;orthogonalLoop=1;jettySize=auto;html=1;entryX=0.5;entryY=0;entryDx=0;entryDy=0;entryPerimeter=0;" edge="1" parent="1" source="SlBY4rNjQKFtLtAtpvnM-4" target="SlBY4rNjQKFtLtAtpvnM-6">
          <mxGeometry relative="1" as="geometry" />
        </mxCell>
        <mxCell id="SlBY4rNjQKFtLtAtpvnM-16" value="Git token" style="edgeLabel;html=1;align=center;verticalAlign=middle;resizable=0;points=[];" vertex="1" connectable="0" parent="SlBY4rNjQKFtLtAtpvnM-15">
          <mxGeometry x="-0.4378" relative="1" as="geometry">
            <mxPoint as="offset" />
          </mxGeometry>
        </mxCell>
        <mxCell id="SlBY4rNjQKFtLtAtpvnM-19" style="edgeStyle=orthogonalEdgeStyle;rounded=0;orthogonalLoop=1;jettySize=auto;html=1;" edge="1" parent="1" source="SlBY4rNjQKFtLtAtpvnM-7" target="SlBY4rNjQKFtLtAtpvnM-1">
          <mxGeometry relative="1" as="geometry">
            <Array as="points">
              <mxPoint x="8" y="-595" />
              <mxPoint x="-123" y="-595" />
            </Array>
          </mxGeometry>
        </mxCell>
        <mxCell id="SlBY4rNjQKFtLtAtpvnM-20" value="HTTP:8080" style="edgeLabel;html=1;align=center;verticalAlign=middle;resizable=0;points=[];" vertex="1" connectable="0" parent="SlBY4rNjQKFtLtAtpvnM-19">
          <mxGeometry x="0.0274" y="2" relative="1" as="geometry">
            <mxPoint x="47" y="-2" as="offset" />
          </mxGeometry>
        </mxCell>
        <mxCell id="SlBY4rNjQKFtLtAtpvnM-26" style="edgeStyle=orthogonalEdgeStyle;rounded=0;orthogonalLoop=1;jettySize=auto;html=1;exitX=1;exitY=0.5;exitDx=0;exitDy=0;entryX=0.5;entryY=1;entryDx=0;entryDy=0;" edge="1" parent="1" source="SlBY4rNjQKFtLtAtpvnM-21" target="SlBY4rNjQKFtLtAtpvnM-3">
          <mxGeometry relative="1" as="geometry" />
        </mxCell>
        <mxCell id="SlBY4rNjQKFtLtAtpvnM-27" value="Read/Write tfstate" style="edgeLabel;html=1;align=center;verticalAlign=middle;resizable=0;points=[];" vertex="1" connectable="0" parent="SlBY4rNjQKFtLtAtpvnM-26">
          <mxGeometry x="-0.2536" y="1" relative="1" as="geometry">
            <mxPoint as="offset" />
          </mxGeometry>
        </mxCell>
        <mxCell id="SlBY4rNjQKFtLtAtpvnM-21" value="Backend" style="rounded=1;whiteSpace=wrap;html=1;labelPosition=center;verticalLabelPosition=bottom;align=center;verticalAlign=top;" vertex="1" parent="1">
          <mxGeometry x="-356" y="-374" width="120" height="168" as="geometry" />
        </mxCell>
        <mxCell id="SlBY4rNjQKFtLtAtpvnM-23" style="edgeStyle=orthogonalEdgeStyle;rounded=0;orthogonalLoop=1;jettySize=auto;html=1;entryX=0.104;entryY=0.008;entryDx=0;entryDy=0;entryPerimeter=0;fillColor=#e51400;strokeColor=#B20000;strokeWidth=3;" edge="1" parent="1" source="SlBY4rNjQKFtLtAtpvnM-10" target="SlBY4rNjQKFtLtAtpvnM-5">
          <mxGeometry relative="1" as="geometry">
            <Array as="points">
              <mxPoint x="-313" y="-532" />
              <mxPoint x="-294" y="-532" />
            </Array>
          </mxGeometry>
        </mxCell>
        <mxCell id="SlBY4rNjQKFtLtAtpvnM-24" value="Create/Update/Delete" style="edgeLabel;html=1;align=center;verticalAlign=middle;resizable=0;points=[];fontColor=#FF3333;fontStyle=1" vertex="1" connectable="0" parent="SlBY4rNjQKFtLtAtpvnM-23">
          <mxGeometry x="-0.2423" y="1" relative="1" as="geometry">
            <mxPoint as="offset" />
          </mxGeometry>
        </mxCell>
        <mxCell id="SlBY4rNjQKFtLtAtpvnM-11" value="" style="shape=image;verticalLabelPosition=bottom;labelBackgroundColor=default;verticalAlign=top;aspect=fixed;imageAspect=0;image=https://svgmix.com/uploads/133ab8-aws-dynamodb.svg;" vertex="1" parent="1">
          <mxGeometry x="-323" y="-354" width="54" height="54" as="geometry" />
        </mxCell>
        <mxCell id="SlBY4rNjQKFtLtAtpvnM-12" value="" style="shape=image;verticalLabelPosition=bottom;labelBackgroundColor=default;verticalAlign=top;aspect=fixed;imageAspect=0;image=https://cdn.worldvectorlogo.com/logos/amazon-s3-simple-storage-service.svg;" vertex="1" parent="1">
          <mxGeometry x="-323" y="-274" width="54" height="54" as="geometry" />
        </mxCell>
        <mxCell id="SlBY4rNjQKFtLtAtpvnM-28" value="VPC" style="points=[[0,0],[0.25,0],[0.5,0],[0.75,0],[1,0],[1,0.25],[1,0.5],[1,0.75],[1,1],[0.75,1],[0.5,1],[0.25,1],[0,1],[0,0.75],[0,0.5],[0,0.25]];outlineConnect=0;gradientColor=none;html=1;whiteSpace=wrap;fontSize=12;fontStyle=0;container=1;pointerEvents=0;collapsible=0;recursiveResize=0;shape=mxgraph.aws4.group;grIcon=mxgraph.aws4.group_vpc2;strokeColor=#8C4FFF;fillColor=none;verticalAlign=top;align=left;spacingLeft=30;fontColor=#AAB7B8;dashed=0;" vertex="1" parent="1">
          <mxGeometry x="110" y="-540" width="376" height="324" as="geometry" />
        </mxCell>
        <mxCell id="SlBY4rNjQKFtLtAtpvnM-29" value="Private subnet" style="points=[[0,0],[0.25,0],[0.5,0],[0.75,0],[1,0],[1,0.25],[1,0.5],[1,0.75],[1,1],[0.75,1],[0.5,1],[0.25,1],[0,1],[0,0.75],[0,0.5],[0,0.25]];outlineConnect=0;gradientColor=none;html=1;whiteSpace=wrap;fontSize=12;fontStyle=0;container=1;pointerEvents=0;collapsible=0;recursiveResize=0;shape=mxgraph.aws4.group;grIcon=mxgraph.aws4.group_security_group;grStroke=0;strokeColor=#00A4A6;fillColor=#E6F6F7;verticalAlign=top;align=left;spacingLeft=30;fontColor=#147EBA;dashed=0;" vertex="1" parent="SlBY4rNjQKFtLtAtpvnM-28">
          <mxGeometry x="219" y="148" width="130" height="130" as="geometry" />
        </mxCell>
        <mxCell id="SlBY4rNjQKFtLtAtpvnM-33" value="App" style="sketch=0;points=[[0,0,0],[0.25,0,0],[0.5,0,0],[0.75,0,0],[1,0,0],[0,1,0],[0.25,1,0],[0.5,1,0],[0.75,1,0],[1,1,0],[0,0.25,0],[0,0.5,0],[0,0.75,0],[1,0.25,0],[1,0.5,0],[1,0.75,0]];outlineConnect=0;fontColor=#232F3E;fillColor=#ED7100;strokeColor=#ffffff;dashed=0;verticalLabelPosition=bottom;verticalAlign=top;align=center;html=1;fontSize=12;fontStyle=0;aspect=fixed;shape=mxgraph.aws4.resourceIcon;resIcon=mxgraph.aws4.ec2;" vertex="1" parent="SlBY4rNjQKFtLtAtpvnM-29">
          <mxGeometry x="39" y="42" width="52" height="52" as="geometry" />
        </mxCell>
        <mxCell id="SlBY4rNjQKFtLtAtpvnM-30" value="Public subnet" style="points=[[0,0],[0.25,0],[0.5,0],[0.75,0],[1,0],[1,0.25],[1,0.5],[1,0.75],[1,1],[0.75,1],[0.5,1],[0.25,1],[0,1],[0,0.75],[0,0.5],[0,0.25]];outlineConnect=0;gradientColor=none;html=1;whiteSpace=wrap;fontSize=12;fontStyle=0;container=1;pointerEvents=0;collapsible=0;recursiveResize=0;shape=mxgraph.aws4.group;grIcon=mxgraph.aws4.group_security_group;grStroke=0;strokeColor=#7AA116;fillColor=#F2F6E8;verticalAlign=top;align=left;spacingLeft=30;fontColor=#248814;dashed=0;" vertex="1" parent="SlBY4rNjQKFtLtAtpvnM-28">
          <mxGeometry x="16" y="38" width="174" height="156" as="geometry" />
        </mxCell>
        <mxCell id="SlBY4rNjQKFtLtAtpvnM-32" value="Bastion" style="sketch=0;points=[[0,0,0],[0.25,0,0],[0.5,0,0],[0.75,0,0],[1,0,0],[0,1,0],[0.25,1,0],[0.5,1,0],[0.75,1,0],[1,1,0],[0,0.25,0],[0,0.5,0],[0,0.75,0],[1,0.25,0],[1,0.5,0],[1,0.75,0]];outlineConnect=0;fontColor=#232F3E;fillColor=#ED7100;strokeColor=#ffffff;dashed=0;verticalLabelPosition=bottom;verticalAlign=top;align=center;html=1;fontSize=12;fontStyle=0;aspect=fixed;shape=mxgraph.aws4.resourceIcon;resIcon=mxgraph.aws4.ec2;" vertex="1" parent="SlBY4rNjQKFtLtAtpvnM-30">
          <mxGeometry x="67" y="55" width="52" height="52" as="geometry" />
        </mxCell>
        <mxCell id="SlBY4rNjQKFtLtAtpvnM-35" value="Security group" style="fillColor=none;strokeColor=#DD3522;verticalAlign=top;fontStyle=0;fontColor=#DD3522;whiteSpace=wrap;html=1;" vertex="1" parent="SlBY4rNjQKFtLtAtpvnM-30">
          <mxGeometry x="52.5" y="30.5" width="81" height="101" as="geometry" />
        </mxCell>
        <mxCell id="SlBY4rNjQKFtLtAtpvnM-31" value="Public subnet" style="points=[[0,0],[0.25,0],[0.5,0],[0.75,0],[1,0],[1,0.25],[1,0.5],[1,0.75],[1,1],[0.75,1],[0.5,1],[0.25,1],[0,1],[0,0.75],[0,0.5],[0,0.25]];outlineConnect=0;gradientColor=none;html=1;whiteSpace=wrap;fontSize=12;fontStyle=0;container=1;pointerEvents=0;collapsible=0;recursiveResize=0;shape=mxgraph.aws4.group;grIcon=mxgraph.aws4.group_security_group;grStroke=0;strokeColor=#7AA116;fillColor=#F2F6E8;verticalAlign=top;align=left;spacingLeft=30;fontColor=#248814;dashed=0;" vertex="1" parent="SlBY4rNjQKFtLtAtpvnM-28">
          <mxGeometry x="38" y="222" width="130" height="91" as="geometry" />
        </mxCell>
        <mxCell id="SlBY4rNjQKFtLtAtpvnM-34" value="Security group" style="fillColor=none;strokeColor=#DD3522;verticalAlign=top;fontStyle=0;fontColor=#DD3522;whiteSpace=wrap;html=1;" vertex="1" parent="SlBY4rNjQKFtLtAtpvnM-28">
          <mxGeometry x="240" y="169" width="90" height="101" as="geometry" />
        </mxCell>
      </root>
    </mxGraphModel>
  </diagram>
</mxfile>
